<svg width="30" height="29" viewBox="0 0 30 29" fill="none" xmlns="http://www.w3.org/2000/svg">
<g clip-path="url(#clip0_2007_1442)">
<path d="M29.5071 28.1925L28.0479 7.91939C28.0384 7.7305 27.9652 7.56994 27.8283 7.43771C27.6913 7.30549 27.5237 7.23937 27.3253 7.23937H24.0102L18.4142 1.65755C18.2726 1.51588 18.1026 1.44504 17.9042 1.44504C17.7059 1.44504 17.5359 1.51588 17.3942 1.65755L16.6575 2.38007C16.5159 2.52174 16.445 2.69174 16.445 2.89008C16.445 3.08842 16.5159 3.25843 16.6575 3.4001C16.7992 3.54177 16.9716 3.6126 17.1746 3.6126C17.3777 3.6126 17.5501 3.54177 17.6917 3.4001L17.9042 3.18759L21.956 7.23937H19.6468L13.3424 0.935026C13.2008 0.793356 13.0284 0.722521 12.8253 0.722521C12.6223 0.722521 12.4499 0.793356 12.3082 0.935026L5.98972 7.23937H2.67462C2.47628 7.23937 2.30864 7.30549 2.17169 7.43771C2.03474 7.56994 1.96155 7.7305 1.9521 7.91939L0.492894 28.235C0.48345 28.3294 0.495256 28.4239 0.528312 28.5183C0.561369 28.6128 0.615676 28.6978 0.691233 28.7733C0.757346 28.8489 0.837626 28.9056 0.932074 28.9433C1.02652 28.9811 1.12097 29 1.21542 29H28.7845C28.9829 29 29.1529 28.9292 29.2946 28.7875C29.4362 28.6458 29.5071 28.4758 29.5071 28.2775C29.5071 28.268 29.5071 28.2539 29.5071 28.235C29.5071 28.2161 29.5071 28.2019 29.5071 28.1925ZM12.8182 2.46507L17.6067 7.23937H8.04394L12.8182 2.46507ZM1.9946 27.555L3.34048 8.69858H6.30139H26.6595L28.0054 27.555H1.9946ZM15 20.3014C14.6033 20.3014 14.2137 20.2471 13.8312 20.1385C13.4487 20.0299 13.0803 19.874 12.7262 19.671C12.372 19.4679 12.0343 19.2153 11.7132 18.913C11.3921 18.6108 11.0946 18.2614 10.8207 17.8647C10.5562 17.4963 10.3225 17.0973 10.1194 16.6676C9.91636 16.2378 9.74636 15.7892 9.60941 15.3217C9.47246 14.8542 9.36857 14.3678 9.29773 13.8625C9.2269 13.3572 9.19148 12.8448 9.19148 12.3254C9.19148 12.127 9.26231 11.957 9.40398 11.8153C9.54566 11.6737 9.72038 11.6028 9.92817 11.6028C10.1265 11.6028 10.2965 11.6737 10.4382 11.8153C10.5799 11.957 10.6507 12.127 10.6507 12.3254C10.6507 12.7693 10.679 13.2061 10.7357 13.6358C10.7924 14.0655 10.8797 14.4811 10.9978 14.8825C11.1158 15.2839 11.2575 15.6641 11.4228 16.023C11.5881 16.3819 11.7841 16.7171 12.0107 17.0288C12.4168 17.6144 12.8773 18.0654 13.392 18.3818C13.9068 18.6982 14.4427 18.8564 15 18.8564C15.5572 18.8564 16.0932 18.6982 16.6079 18.3818C17.1227 18.0654 17.5831 17.6144 17.9892 17.0288C18.2159 16.7171 18.4119 16.3819 18.5772 16.023C18.7424 15.6641 18.8841 15.2839 19.0022 14.8825C19.1202 14.4811 19.2076 14.0655 19.2643 13.6358C19.3209 13.2061 19.3493 12.7693 19.3493 12.3254C19.3493 12.127 19.4201 11.957 19.5618 11.8153C19.7034 11.6737 19.8735 11.6028 20.0718 11.6028C20.2796 11.6028 20.4543 11.6737 20.596 11.8153C20.7376 11.957 20.8085 12.127 20.8085 12.3254C20.8085 12.8448 20.7731 13.3572 20.7022 13.8625C20.6314 14.3678 20.5275 14.8542 20.3905 15.3217C20.2536 15.7892 20.0836 16.2378 19.8805 16.6676C19.6775 17.0973 19.4437 17.4963 19.1793 17.8647C18.9054 18.2614 18.6079 18.6108 18.2867 18.913C17.9656 19.2153 17.628 19.4679 17.2738 19.671C16.9196 19.874 16.5513 20.0299 16.1688 20.1385C15.7863 20.2471 15.3967 20.3014 15 20.3014Z" fill="#64748B"/>
</g>
<defs>
<clipPath id="clip0_2007_1442">
<rect width="30" height="29" fill="white" transform="matrix(1 0 0 -1 0 29)"/>
</clipPath>
</defs>
</svg>
