<svg width="17" height="17" viewBox="0 0 17 17" fill="none" xmlns="http://www.w3.org/2000/svg">
<g clip-path="url(#clip0_2016_1269)">
<path d="M7.82 7.76333H0V2.09667C0 1.53 0.207778 1.03889 0.623333 0.623333C1.03889 0.207777 1.54889 0 2.15333 0H7.82V7.76333ZM1.41667 6.34667H6.40333V1.41667H2.15333C1.92667 1.41667 1.74722 1.48278 1.615 1.615C1.48278 1.74722 1.41667 1.90778 1.41667 2.09667V6.34667ZM17 7.76333H9.23667V0H14.9033C15.47 0 15.9611 0.207777 16.3767 0.623333C16.7922 1.03889 17 1.54889 17 2.15333V7.76333ZM10.6533 6.34667H15.5833V2.09667C15.5833 1.90778 15.5172 1.74722 15.385 1.615C15.2528 1.48278 15.0922 1.41667 14.9033 1.41667H10.6533V6.34667ZM7.82 17H2.15333C1.54889 17 1.03889 16.7922 0.623333 16.3767C0.207778 15.9611 0 15.47 0 14.9033V9.18H7.82V17ZM1.41667 10.5967V14.8467C1.41667 15.0733 1.48278 15.2528 1.615 15.385C1.74722 15.5172 1.92667 15.5833 2.15333 15.5833H6.40333V10.5967H1.41667ZM14.9033 17H9.23667V9.18H17V14.8467C17 15.4511 16.7922 15.9611 16.3767 16.3767C15.9611 16.7922 15.4511 17 14.8467 17H14.9033ZM10.6533 15.5833H14.9033C15.0922 15.5833 15.2528 15.5172 15.385 15.385C15.5172 15.2528 15.5833 15.0733 15.5833 14.8467V10.5967H10.6533V15.5833Z" fill="#186737"/>
</g>
<defs>
<clipPath id="clip0_2016_1269">
<rect width="17" height="17" fill="white" transform="matrix(1 0 0 -1 0 17)"/>
</clipPath>
</defs>
</svg>
