<svg width="30" height="29" viewBox="0 0 30 29" fill="none" xmlns="http://www.w3.org/2000/svg">
<g clip-path="url(#clip0_2007_1431)">
<path d="M25.8803 29H2.67465C2.07019 29 1.55545 28.7875 1.13044 28.3625C0.705426 27.9375 0.49292 27.4275 0.49292 26.8324V3.6126C0.49292 3.01759 0.705426 2.50757 1.13044 2.08256C1.55545 1.65755 2.07019 1.44504 2.67465 1.44504H25.8803C26.4848 1.44504 26.9995 1.65755 27.4245 2.08256C27.8495 2.50757 28.062 3.01759 28.062 3.6126V26.8324C28.062 27.4275 27.8495 27.9375 27.4245 28.3625C26.9995 28.7875 26.4848 29 25.8803 29ZM2.67465 2.89008C2.46687 2.89008 2.29214 2.96092 2.15047 3.10259C2.0088 3.24426 1.93796 3.41426 1.93796 3.6126V26.8324C1.93796 27.0308 2.0088 27.2008 2.15047 27.3425C2.29214 27.4841 2.46687 27.555 2.67465 27.555H25.8803C26.0787 27.555 26.2487 27.4841 26.3903 27.3425C26.532 27.2008 26.6028 27.0308 26.6028 26.8324V3.6126C26.6028 3.41426 26.532 3.24426 26.3903 3.10259C26.2487 2.96092 26.0787 2.89008 25.8803 2.89008H2.67465ZM9.92819 24.6507H7.02394C6.8256 24.6507 6.6556 24.5799 6.51393 24.4382C6.37226 24.2965 6.30142 24.1265 6.30142 23.9282V10.8661C6.30142 10.6678 6.37226 10.4978 6.51393 10.3561C6.6556 10.2145 6.8256 10.1436 7.02394 10.1436H9.92819C10.1265 10.1436 10.2965 10.2145 10.4382 10.3561C10.5799 10.4978 10.6507 10.6678 10.6507 10.8661V23.9282C10.6507 24.1265 10.5799 24.2965 10.4382 24.4382C10.2965 24.5799 10.1265 24.6507 9.92819 24.6507ZM7.74646 23.2057H9.1915V11.6028H7.74646V23.2057ZM15.7225 24.6507H12.8183C12.6199 24.6507 12.4499 24.5799 12.3083 24.4382C12.1666 24.2965 12.0958 24.1265 12.0958 23.9282V6.51685C12.0958 6.31851 12.1666 6.14851 12.3083 6.00684C12.4499 5.86517 12.6199 5.79433 12.8183 5.79433H15.7225C15.9209 5.79433 16.0909 5.86517 16.2325 6.00684C16.3742 6.14851 16.445 6.31851 16.445 6.51685V23.9282C16.445 24.1265 16.3742 24.2965 16.2325 24.4382C16.0909 24.5799 15.9209 24.6507 15.7225 24.6507ZM13.555 23.2057H15V7.23937H13.555V23.2057ZM21.531 24.6507H18.6268C18.4284 24.6507 18.2584 24.5799 18.1168 24.4382C17.9751 24.2965 17.9043 24.1265 17.9043 23.9282V16.6746C17.9043 16.4763 17.9751 16.3063 18.1168 16.1646C18.2584 16.023 18.4284 15.9521 18.6268 15.9521H21.531C21.7294 15.9521 21.8994 16.023 22.041 16.1646C22.1827 16.3063 22.2535 16.4763 22.2535 16.6746V23.9282C22.2535 24.1265 22.1827 24.2965 22.041 24.4382C21.8994 24.5799 21.7294 24.6507 21.531 24.6507ZM19.3493 23.2057H20.8085V17.3972H19.3493V23.2057Z" fill="#64748B"/>
</g>
<defs>
<clipPath id="clip0_2007_1431">
<rect width="30" height="29" fill="white" transform="matrix(1 0 0 -1 0 29)"/>
</clipPath>
</defs>
</svg>
