<svg width="30" height="29" viewBox="0 0 30 29" fill="none" xmlns="http://www.w3.org/2000/svg">
<path d="M14.2775 27.5549C14.2114 27.5549 14.15 27.5478 14.0933 27.5337C14.0366 27.5195 13.98 27.4983 13.9233 27.4699C13.8855 27.451 13.673 27.3259 13.2858 27.0945C12.8986 26.8631 12.3956 26.5396 11.777 26.1241C11.1584 25.7085 10.4571 25.2032 9.67318 24.6082C8.88927 24.0132 8.08647 23.3473 7.26478 22.6106C6.77366 22.1667 6.31086 21.7228 5.87641 21.2789C5.44195 20.835 5.03111 20.3911 4.64387 19.9472C4.25664 19.5033 3.89538 19.057 3.56009 18.6084C3.2248 18.1598 2.92021 17.7135 2.64632 17.2696C2.28742 16.703 1.97338 16.1339 1.7042 15.5625C1.43503 14.9911 1.21072 14.4244 1.03127 13.8625C0.851819 13.3005 0.717232 12.7385 0.627507 12.1766C0.537782 11.6146 0.49292 11.0597 0.49292 10.5119C0.49292 9.46358 0.69362 8.4766 1.09502 7.55102C1.49642 6.62544 2.04185 5.81792 2.73132 5.12845C3.42078 4.43899 4.22594 3.89355 5.1468 3.49216C6.06766 3.09075 7.057 2.89005 8.11481 2.89005C8.46426 2.89005 8.8208 2.92311 9.18442 2.98922C9.54804 3.05534 9.9093 3.15215 10.2682 3.27965C10.6271 3.40715 10.9836 3.56299 11.3378 3.74716C11.692 3.93133 12.0344 4.1462 12.3649 4.39176C12.7522 4.67511 13.1063 4.98442 13.4275 5.31971C13.7486 5.65499 14.0319 6.00209 14.2775 6.36099C14.5136 6.00209 14.7946 5.65499 15.1204 5.31971C15.4463 4.98442 15.8028 4.67511 16.19 4.39176C16.5206 4.1462 16.8606 3.93133 17.2101 3.74716C17.5595 3.56299 17.9137 3.40715 18.2726 3.27965C18.6315 3.15215 18.9928 3.05534 19.3564 2.98922C19.72 2.92311 20.0813 2.89005 20.4402 2.89005C21.4885 2.89005 22.4755 3.09075 23.4011 3.49216C24.3267 3.89355 25.1342 4.43899 25.8236 5.12845C26.5131 5.81792 27.0585 6.62544 27.4599 7.55102C27.8613 8.4766 28.062 9.46358 28.062 10.5119C28.062 11.0597 28.0148 11.6146 27.9204 12.1766C27.8259 12.7385 27.689 13.3005 27.5095 13.8625C27.3301 14.4244 27.1081 14.9911 26.8437 15.5625C26.5792 16.1339 26.2675 16.703 25.9087 17.2696C25.6253 17.7135 25.3184 18.1598 24.9878 18.6084C24.6572 19.057 24.2983 19.5033 23.9111 19.9472C23.5239 20.3911 23.1107 20.835 22.6715 21.2789C22.2323 21.7228 21.7719 22.1667 21.2902 22.6106C20.4685 23.3473 19.6657 24.0132 18.8818 24.6082C18.0979 25.2032 17.3966 25.7085 16.778 26.1241C16.1593 26.5396 15.6541 26.8631 15.2621 27.0945C14.8701 27.3259 14.66 27.451 14.6317 27.4699C14.575 27.4983 14.516 27.5195 14.4546 27.5337C14.3932 27.5478 14.3342 27.5549 14.2775 27.5549ZM8.11481 4.34926C7.26478 4.34926 6.46434 4.50982 5.71349 4.83094C4.96263 5.15206 4.30859 5.59124 3.75135 6.14848C3.19411 6.70572 2.75257 7.35977 2.42673 8.11062C2.10088 8.86148 1.93796 9.66192 1.93796 10.5119C1.93796 11.617 2.13158 12.6889 2.51881 13.7279C2.90604 14.7668 3.40189 15.7561 4.00635 16.6959C4.61082 17.6356 5.28375 18.5116 6.02516 19.3239C6.76657 20.1361 7.49618 20.8633 8.21398 21.5056C8.84677 22.0912 9.47721 22.6272 10.1053 23.1136C10.7334 23.6 11.3166 24.0321 11.8549 24.4098C12.3933 24.7876 12.8726 25.1111 13.2929 25.3803C13.7132 25.6495 14.0414 25.8549 14.2775 25.9966C14.5042 25.8549 14.8276 25.6495 15.2479 25.3803C15.6682 25.1111 16.1499 24.7876 16.693 24.4098C17.236 24.0321 17.8193 23.6 18.4426 23.1136C19.066 22.6272 19.6987 22.0912 20.341 21.5056C21.0493 20.8633 21.7766 20.1361 22.5227 19.3239C23.2689 18.5116 23.9441 17.6356 24.5486 16.6959C25.1531 15.7561 25.6466 14.7668 26.0291 13.7279C26.4116 12.6889 26.6028 11.617 26.6028 10.5119C26.6028 9.66192 26.4423 8.86148 26.1212 8.11062C25.8 7.35977 25.3585 6.70572 24.7965 6.14848C24.2346 5.59124 23.5805 5.15206 22.8344 4.83094C22.0883 4.50982 21.2902 4.34926 20.4402 4.34926C19.8263 4.34926 19.2242 4.4626 18.6339 4.68927C18.0436 4.91595 17.5005 5.21346 17.0046 5.5818C16.5088 5.95014 16.0814 6.36571 15.7225 6.8285C15.3636 7.29129 15.1086 7.74936 14.9575 8.20271C14.9103 8.34438 14.8229 8.46244 14.6954 8.55688C14.5679 8.65133 14.4286 8.69855 14.2775 8.69855C14.1169 8.69855 13.9729 8.65133 13.8454 8.55688C13.7179 8.46244 13.6305 8.34438 13.5833 8.20271C13.4322 7.74936 13.1772 7.29129 12.8183 6.8285C12.4594 6.36571 12.0344 5.95014 11.5432 5.5818C11.0521 5.21346 10.5114 4.91595 9.92111 4.68927C9.33081 4.4626 8.72871 4.34926 8.11481 4.34926Z" fill="#64748B"/>
</svg>
