<svg width="12" height="16" viewBox="0 0 12 16" fill="none" xmlns="http://www.w3.org/2000/svg">
<path d="M6 15.2593L5.57143 14.9216C4.52381 14.0213 3.52381 13.0083 2.57143 11.8829C0.857143 9.85704 0 8.16884 0 6.81828C0 5.72497 0.269841 4.71205 0.809524 3.77952C1.34921 2.84699 2.07937 2.1074 3 1.56074C3.92063 1.01409 4.92064 0.740759 6 0.740759C7.07937 0.740759 8.07936 1.01409 9 1.56074C9.92064 2.1074 10.6508 2.84699 11.1905 3.77952C11.7302 4.71205 12 5.72497 12 6.81828C12 8.16884 11.1429 9.85704 9.42857 11.8829C8.50794 12.9762 7.50794 13.9891 6.42857 14.9216L6 15.2593ZM6 2.04308C5.14286 2.04308 4.35714 2.26014 3.64286 2.69425C2.92857 3.12836 2.35714 3.70717 1.92857 4.43068C1.5 5.1542 1.28571 5.9581 1.28571 6.8424C1.28571 7.72669 1.87302 8.90843 3.04762 10.3876C3.87302 11.4488 4.85714 12.4938 6 13.5228C7.14286 12.4938 8.12698 11.4488 8.95238 10.3876C10.127 8.90843 10.7143 7.72669 10.7143 6.8424C10.7143 5.9581 10.5 5.1542 10.0714 4.43068C9.64286 3.70717 9.07143 3.12836 8.35714 2.69425C7.64286 2.26014 6.85714 2.04308 6 2.04308ZM6 9.22999C5.33333 9.22999 4.76984 8.99686 4.30952 8.5306C3.84921 8.06433 3.61905 7.49356 3.61905 6.81828C3.61905 6.143 3.84921 5.57223 4.30952 5.10596C4.76984 4.6397 5.33333 4.40656 6 4.40656C6.66667 4.40656 7.23016 4.6397 7.69048 5.10596C8.15079 5.57223 8.38095 6.143 8.38095 6.81828C8.38095 7.49356 8.15079 8.06433 7.69048 8.5306C7.23016 8.99686 6.66667 9.22999 6 9.22999ZM6 5.61242C5.68254 5.61242 5.40476 5.73301 5.16667 5.97418C4.92857 6.21535 4.80952 6.49672 4.80952 6.81828C4.80952 7.13984 4.92857 7.42121 5.16667 7.66238C5.40476 7.90355 5.68254 8.02414 6 8.02414C6.31746 8.02414 6.59524 7.90355 6.83333 7.66238C7.07143 7.42121 7.19048 7.13984 7.19048 6.81828C7.19048 6.49672 7.07143 6.21535 6.83333 5.97418C6.59524 5.73301 6.31746 5.61242 6 5.61242Z" fill="#64748B"/>
</svg>
